#N canvas -8 -8 1366 685 12;
#N canvas 1 59 1354 680 sonidos 1;
#X msg -382 181 220;
#X msg 1014 179 880;
#X obj 117 293 * 1;
#X floatatom 547 416 5 0 0 0 - - -;
#X obj 597 643 dac~;
#X obj 597 558 osc~;
#X obj 547 487 tgl 15 0 empty empty empty 17 7 0 10 -262144 -1 -1 0
1;
#X obj 597 513 *;
#X obj 256 646 dac~;
#X obj 269 579 osc~;
#X obj 176 513 tgl 15 0 empty empty empty 17 7 0 10 -262144 -1 -1 0
1;
#X obj 269 541 *;
#X obj 239 483 &&;
#X floatatom 239 410 5 0 0 0 - - -;
#X obj 103 647 dac~;
#X obj 115 581 osc~;
#X obj 90 514 tgl 15 0 empty empty empty 17 7 0 10 -262144 -1 -1 0
1;
#X obj 114 547 *;
#X obj 82 482 &&;
#X floatatom 82 409 5 0 0 0 - - -;
#X obj -105 647 dac~;
#X obj -94 582 osc~;
#X obj -94 518 tgl 15 0 empty empty empty 17 7 0 10 -262144 -1 -1 1
1;
#X obj -94 549 *;
#X obj -94 485 &&;
#X floatatom -33 412 5 0 0 0 - - -;
#X obj -299 609 dac~;
#X obj -299 544 osc~;
#X obj -299 489 tgl 15 0 empty empty empty 17 7 0 10 -262144 -1 -1
0 1;
#X obj -299 514 *;
#X floatatom -223 417 5 0 0 0 - - -;
#X obj 547 455 < 207;
#X obj -299 452 >= 880;
#X obj -33 446 < 880;
#X obj 239 447 >= 329;
#X obj 290 448 < 493;
#X obj 82 446 >= 493;
#X obj 136 446 < 659;
#X obj -94 447 >= 659;
#X obj 412 639 dac~;
#X obj 425 575 osc~;
#X obj 398 512 tgl 15 0 empty empty empty 17 7 0 10 -262144 -1 -1 0
1;
#X obj 425 541 *;
#X obj 398 483 &&;
#X floatatom 398 412 5 0 0 0 - - -;
#X obj 398 450 >= 207;
#X obj 448 450 < 329;
#X obj 117 322 * 1;
#X obj -94 615 *~ 0.15;
#X obj 115 612 *~ 0.2;
#X obj 598 597 *~ 0.95;
#X obj -299 574 *~ 0.06;
#X obj 268 611 *~ 0.35;
#X obj 424 606 *~ 0.4;
#X obj -326 35 int;
#X floatatom -326 72 5 0 0 0 - - -;
#X obj -326 -7 metro 700;
#X obj -326 -36 tgl 15 0 empty empty empty 17 7 0 10 -262144 -1 -1
0 1;
#X obj -326 -69 r sonar;
#X obj -227 3 r notax;
#X obj 1685 25 r notay;
#X obj -229 39 s notaxLen;
#X obj 1372 325 r notaxLen;
#X obj 1330 314 bng 15 250 50 0 empty empty empty 17 7 0 10 -262144
-1 -1;
#X obj 1350 356 int;
#X obj 1330 289 tgl 15 0 empty empty empty 17 7 0 10 -262144 -1 -1
1 1;
#X obj 1479 422 s notas;
#X obj 1544 423 s notas2;
#X obj 1532 314 r notaxLen;
#X obj 1495 316 bng 15 250 50 0 empty empty empty 17 7 0 10 -262144
-1 -1;
#X obj 1515 345 int;
#X obj 1495 291 tgl 15 0 empty empty empty 17 7 0 10 -262144 -1 -1
1 1;
#X obj 1674 316 r notaxLen;
#X obj 1640 317 bng 15 250 50 0 empty empty empty 17 7 0 10 -262144
-1 -1;
#X obj 1660 346 int;
#X obj 1640 292 tgl 15 0 empty empty empty 17 7 0 10 -262144 -1 -1
0 1;
#X obj 1660 419 s notas;
#X obj 1765 426 s notas;
#X obj 1824 426 s notas2;
#X obj 1890 425 s notas3;
#X obj 1822 317 r notaxLen;
#X obj 1788 318 bng 15 250 50 0 empty empty empty 17 7 0 10 -262144
-1 -1;
#X obj 1808 347 int;
#X obj 1788 293 tgl 15 0 empty empty empty 17 7 0 10 -262144 -1 -1
0 1;
#X obj 1974 424 s notas;
#X obj 2033 424 s notas2;
#X obj 2099 425 s notas3;
#X obj 2044 310 r notaxLen;
#X obj 2010 311 bng 15 250 50 0 empty empty empty 17 7 0 10 -262144
-1 -1;
#X obj 2030 340 int;
#X obj 2010 286 tgl 15 0 empty empty empty 17 7 0 10 -262144 -1 -1
1 1;
#X obj 1597 46 int;
#X obj 1597 8 metro 700;
#X obj 1597 -14 tgl 15 0 empty empty empty 17 7 0 10 -262144 -1 -1
0 1;
#X floatatom 1597 77 5 0 0 0 - - -;
#X obj 1597 -56 r sonar;
#X obj 87 349 t f f f f f f f;
#X obj 1597 135 select 0 1 2 3 4;
#X obj 1386 422 s nota2;
#X obj 1321 421 s notas;
#X obj 2007 143 bng 15 250 50 0 empty empty empty 17 7 0 10 -262144
-1 -1;
#X obj 2007 176 s silencio;
#X obj 1506 387 + 3;
#X msg -880 178 138 \, 591;
#X msg -822 180 146 \, 832;
#X msg -756 180 155 \, 563;
#X msg -695 180 164 \, 814;
#X msg -632 179 174 \, 614;
#X msg -573 178 184 \, 997;
#X msg -511 179 195 \, 998;
#X msg -449 180 207 \, 652;
#X msg -349 181 233 \, 82;
#X msg -288 182 246 \, 942;
#X msg -228 183 261 \, 626;
#X msg -167 182 277 \, 183;
#X msg -111 182 293 \, 665;
#X msg -51 183 311 \, 127;
#X msg 10 183 329 \, 628;
#X msg 74 183 349 \, 228;
#X msg 138 183 369 \, 994;
#X msg 197 182 391 \, 995;
#X msg 260 182 415 \, 305;
#X msg 320 182 440;
#X msg 353 182 466 \, 164;
#X msg 412 181 493 \, 883;
#X msg 471 180 523 \, 251;
#X msg 532 179 554 \, 365;
#X msg 592 179 587 \, 330;
#X msg 652 177 622 \, 254;
#X msg 714 177 659 \, 255;
#X msg 774 178 698 \, 456;
#X msg 836 178 739 \, 989;
#X msg 896 179 783 \, 991;
#X msg 955 180 830 \, 609;
#X msg 1049 180 932 \, 328;
#X msg 1112 179 987 \, 767;
#X msg 1168 181 1046 \, 50;
#X msg 1234 182 1108 \, 73;
#X msg 712 485 0;
#X obj 1320 374 + 4;
#X obj 1381 388 + 7;
#X obj 1538 389 + 7;
#X obj 1791 391 + 4;
#X obj 1823 393 + 7;
#X obj 1859 394 + 11;
#X obj 2014 384 + 3;
#X obj 2046 386 + 7;
#X obj 2080 387 + 10;
#X obj 1660 380 + 7;
#X obj 712 435 r silencio;
#X text 114 70 F= C#3 - C#6;
#N canvas 1 59 1364 680 clase1 0;
#X msg -382 181 220;
#X msg 1014 179 880;
#X obj 117 293 * 1;
#X floatatom 333 416 5 0 0 0 - - -;
#X obj 369 610 dac~;
#X obj 369 525 osc~;
#X obj 354 474 tgl 15 0 empty empty empty 17 7 0 10 -262144 -1 -1 0
1;
#X obj 375 496 *;
#X obj 156 660 dac~;
#X obj 170 596 osc~;
#X obj 169 533 tgl 15 0 empty empty empty 17 7 0 10 -262144 -1 -1 0
1;
#X obj 179 562 *;
#X obj 170 504 &&;
#X floatatom 183 439 5 0 0 0 - - -;
#X obj 56 656 dac~;
#X obj 70 592 osc~;
#X obj 69 529 tgl 15 0 empty empty empty 17 7 0 10 -262144 -1 -1 1
1;
#X obj 79 558 *;
#X obj 70 500 &&;
#X floatatom 83 435 5 0 0 0 - - -;
#X obj -41 652 dac~;
#X obj -27 588 osc~;
#X obj -28 525 tgl 15 0 empty empty empty 17 7 0 10 -262144 -1 -1 0
1;
#X obj -18 554 *;
#X obj -27 496 &&;
#X floatatom -14 431 5 0 0 0 - - -;
#X obj -138 609 dac~;
#X obj -132 553 osc~;
#X obj -128 504 tgl 15 0 empty empty empty 17 7 0 10 -262144 -1 -1
0 1;
#X obj -130 526 *;
#X floatatom -93 445 5 0 0 0 - - -;
#X obj 357 446 < 207;
#X obj -127 478 >= 880;
#X obj 2 465 < 880;
#X obj 149 472 >= 329;
#X obj 200 473 < 493;
#X obj 49 468 >= 493;
#X obj 99 469 < 659;
#X obj -50 464 >= 659;
#X obj 258 641 dac~;
#X obj 272 577 osc~;
#X obj 271 514 tgl 15 0 empty empty empty 17 7 0 10 -262144 -1 -1 0
1;
#X obj 281 543 *;
#X obj 272 485 &&;
#X floatatom 285 420 5 0 0 0 - - -;
#X obj 251 453 >= 207;
#X obj 301 454 < 329;
#X obj 121 322 * 1;
#X obj -30 620 *~ 0.15;
#X obj 68 621 *~ 0.2;
#X obj 370 564 *~ 0.95;
#X obj -134 578 *~ 0.06;
#X obj 168 625 *~ 0.35;
#X obj 270 608 *~ 0.4;
#X text -274 81 notas de c#3 - c#6;
#X floatatom -321 69 5 0 0 0 - - -;
#X obj 87 349 t f f f f f f f;
#X obj -333 105 select 0 1 2 3 4 5 6 7 8 9 10 11 12 13 14 15 16 17
18 19 20 21 22 23 24 25 26 27 28 29 30 31 32 33 34 35, f 156;
#X msg -880 178 138 \, 591;
#X msg -822 180 146 \, 832;
#X msg -756 180 155 \, 563;
#X msg -695 180 164 \, 814;
#X msg -632 179 174 \, 614;
#X msg -573 178 184 \, 997;
#X msg -511 179 195 \, 998;
#X msg -449 180 207 \, 652;
#X msg -349 181 233 \, 82;
#X msg -288 182 246 \, 942;
#X msg -228 183 261 \, 626;
#X msg -167 182 277 \, 183;
#X msg -111 182 293 \, 665;
#X msg -51 183 311 \, 127;
#X msg 10 183 329 \, 628;
#X msg 74 183 349 \, 228;
#X msg 138 183 369 \, 994;
#X msg 197 182 391 \, 995;
#X msg 260 182 415 \, 305;
#X msg 320 182 440;
#X msg 353 182 466 \, 164;
#X msg 412 181 493 \, 883;
#X msg 471 180 523 \, 251;
#X msg 532 179 554 \, 365;
#X msg 592 179 587 \, 330;
#X msg 652 177 622 \, 254;
#X msg 714 177 659 \, 255;
#X msg 774 178 698 \, 456;
#X msg 836 178 739 \, 989;
#X msg 896 179 783 \, 991;
#X msg 955 180 830 \, 609;
#X msg 1049 180 932 \, 328;
#X msg 1112 179 987 \, 767;
#X msg 1168 181 1046 \, 50;
#X msg 1234 182 1108 \, 73;
#X obj 566 358 r silencio;
#X msg 565 402 0;
#X obj -317 25 r notas;
#X connect 0 0 2 0;
#X connect 1 0 2 0;
#X connect 2 0 47 0;
#X connect 2 0 56 0;
#X connect 3 0 7 1;
#X connect 3 0 31 0;
#X connect 5 0 50 0;
#X connect 6 0 7 0;
#X connect 7 0 5 0;
#X connect 9 0 52 0;
#X connect 10 0 11 0;
#X connect 11 0 9 0;
#X connect 12 0 10 0;
#X connect 13 0 11 1;
#X connect 13 0 34 0;
#X connect 13 0 35 0;
#X connect 15 0 49 0;
#X connect 16 0 17 0;
#X connect 17 0 15 0;
#X connect 18 0 16 0;
#X connect 19 0 17 1;
#X connect 19 0 36 0;
#X connect 19 0 37 0;
#X connect 21 0 48 0;
#X connect 22 0 23 0;
#X connect 23 0 21 0;
#X connect 24 0 22 0;
#X connect 25 0 23 1;
#X connect 25 0 33 0;
#X connect 25 0 38 0;
#X connect 27 0 51 0;
#X connect 28 0 29 0;
#X connect 29 0 27 0;
#X connect 30 0 29 1;
#X connect 30 0 32 0;
#X connect 31 0 6 0;
#X connect 32 0 28 0;
#X connect 33 0 24 1;
#X connect 34 0 12 0;
#X connect 35 0 12 1;
#X connect 36 0 18 0;
#X connect 37 0 18 1;
#X connect 38 0 24 0;
#X connect 40 0 53 0;
#X connect 41 0 42 0;
#X connect 42 0 40 0;
#X connect 43 0 41 0;
#X connect 44 0 42 1;
#X connect 44 0 45 0;
#X connect 44 0 46 0;
#X connect 45 0 43 0;
#X connect 46 0 43 1;
#X connect 47 0 56 0;
#X connect 48 0 20 0;
#X connect 48 0 20 1;
#X connect 49 0 14 0;
#X connect 49 0 14 1;
#X connect 50 0 4 0;
#X connect 50 0 4 1;
#X connect 51 0 26 0;
#X connect 51 0 26 1;
#X connect 52 0 8 0;
#X connect 52 0 8 1;
#X connect 53 0 39 0;
#X connect 53 0 39 1;
#X connect 55 0 57 0;
#X connect 56 0 30 0;
#X connect 56 1 25 0;
#X connect 56 2 19 0;
#X connect 56 3 13 0;
#X connect 56 4 44 0;
#X connect 56 6 3 0;
#X connect 57 0 58 0;
#X connect 57 1 59 0;
#X connect 57 2 60 0;
#X connect 57 3 61 0;
#X connect 57 4 62 0;
#X connect 57 5 63 0;
#X connect 57 6 64 0;
#X connect 57 7 65 0;
#X connect 57 8 0 0;
#X connect 57 9 66 0;
#X connect 57 10 67 0;
#X connect 57 11 68 0;
#X connect 57 12 69 0;
#X connect 57 13 70 0;
#X connect 57 14 71 0;
#X connect 57 15 72 0;
#X connect 57 16 73 0;
#X connect 57 17 74 0;
#X connect 57 18 75 0;
#X connect 57 19 76 0;
#X connect 57 20 77 0;
#X connect 57 21 78 0;
#X connect 57 22 79 0;
#X connect 57 23 80 0;
#X connect 57 24 81 0;
#X connect 57 25 82 0;
#X connect 57 26 83 0;
#X connect 57 27 84 0;
#X connect 57 28 85 0;
#X connect 57 29 86 0;
#X connect 57 30 87 0;
#X connect 57 31 88 0;
#X connect 57 32 1 0;
#X connect 57 33 89 0;
#X connect 57 34 90 0;
#X connect 57 35 91 0;
#X connect 57 36 92 0;
#X connect 58 0 2 0;
#X connect 59 0 2 0;
#X connect 60 0 2 0;
#X connect 61 0 2 0;
#X connect 62 0 2 0;
#X connect 63 0 2 0;
#X connect 64 0 2 0;
#X connect 65 0 2 0;
#X connect 66 0 2 0;
#X connect 67 0 2 0;
#X connect 68 0 2 0;
#X connect 69 0 2 0;
#X connect 70 0 2 0;
#X connect 71 0 2 0;
#X connect 72 0 2 0;
#X connect 73 0 2 0;
#X connect 74 0 2 0;
#X connect 75 0 2 0;
#X connect 76 0 2 0;
#X connect 77 0 2 0;
#X connect 78 0 2 0;
#X connect 79 0 2 0;
#X connect 80 0 2 0;
#X connect 81 0 2 0;
#X connect 82 0 2 0;
#X connect 83 0 2 0;
#X connect 84 0 2 0;
#X connect 85 0 2 0;
#X connect 86 0 2 0;
#X connect 87 0 2 0;
#X connect 88 0 2 0;
#X connect 89 0 2 0;
#X connect 90 0 2 0;
#X connect 91 0 2 0;
#X connect 92 0 2 0;
#X connect 93 0 94 0;
#X connect 94 0 6 0;
#X connect 94 0 41 0;
#X connect 94 0 10 0;
#X connect 94 0 16 0;
#X connect 94 0 22 0;
#X connect 94 0 28 0;
#X connect 95 0 55 0;
#X restore 128 -12 pd clase1;
#N canvas 0 59 1366 681 clase2 0;
#X msg -382 181 220;
#X msg 1014 179 880;
#X obj 117 293 * 1;
#X floatatom 333 416 5 0 0 0 - - -;
#X obj 369 610 dac~;
#X obj 369 525 osc~;
#X obj 354 474 tgl 15 0 empty empty empty 17 7 0 10 -262144 -1 -1 0
1;
#X obj 375 496 *;
#X obj 156 660 dac~;
#X obj 170 596 osc~;
#X obj 169 533 tgl 15 0 empty empty empty 17 7 0 10 -262144 -1 -1 0
1;
#X obj 179 562 *;
#X obj 170 504 &&;
#X floatatom 183 439 5 0 0 0 - - -;
#X obj 56 656 dac~;
#X obj 70 592 osc~;
#X obj 69 529 tgl 15 0 empty empty empty 17 7 0 10 -262144 -1 -1 0
1;
#X obj 79 558 *;
#X obj 70 500 &&;
#X floatatom 83 435 5 0 0 0 - - -;
#X obj -41 652 dac~;
#X obj -27 588 osc~;
#X obj -28 525 tgl 15 0 empty empty empty 17 7 0 10 -262144 -1 -1 0
1;
#X obj -18 554 *;
#X obj -27 496 &&;
#X floatatom -14 431 5 0 0 0 - - -;
#X obj -138 609 dac~;
#X obj -132 553 osc~;
#X obj -128 504 tgl 15 0 empty empty empty 17 7 0 10 -262144 -1 -1
0 1;
#X obj -130 526 *;
#X floatatom -93 445 5 0 0 0 - - -;
#X obj 357 446 < 207;
#X obj -127 478 >= 880;
#X obj 2 465 < 880;
#X obj 149 472 >= 329;
#X obj 200 473 < 493;
#X obj 49 468 >= 493;
#X obj 99 469 < 659;
#X obj -50 464 >= 659;
#X obj 258 641 dac~;
#X obj 272 577 osc~;
#X obj 271 514 tgl 15 0 empty empty empty 17 7 0 10 -262144 -1 -1 1
1;
#X obj 281 543 *;
#X obj 272 485 &&;
#X floatatom 285 420 5 0 0 0 - - -;
#X obj 251 453 >= 207;
#X obj 301 454 < 329;
#X obj 121 322 * 1;
#X obj -30 620 *~ 0.15;
#X obj 68 621 *~ 0.2;
#X obj 370 564 *~ 0.95;
#X obj -134 578 *~ 0.06;
#X obj 168 625 *~ 0.35;
#X obj 270 608 *~ 0.4;
#X text -274 81 notas de c#3 - c#6;
#X floatatom -321 69 5 0 0 0 - - -;
#X obj 87 349 t f f f f f f f;
#X obj -333 105 select 0 1 2 3 4 5 6 7 8 9 10 11 12 13 14 15 16 17
18 19 20 21 22 23 24 25 26 27 28 29 30 31 32 33 34 35, f 156;
#X msg -880 178 138 \, 591;
#X msg -822 180 146 \, 832;
#X msg -756 180 155 \, 563;
#X msg -695 180 164 \, 814;
#X msg -632 179 174 \, 614;
#X msg -573 178 184 \, 997;
#X msg -511 179 195 \, 998;
#X msg -449 180 207 \, 652;
#X msg -349 181 233 \, 82;
#X msg -288 182 246 \, 942;
#X msg -228 183 261 \, 626;
#X msg -167 182 277 \, 183;
#X msg -111 182 293 \, 665;
#X msg -51 183 311 \, 127;
#X msg 10 183 329 \, 628;
#X msg 74 183 349 \, 228;
#X msg 138 183 369 \, 994;
#X msg 197 182 391 \, 995;
#X msg 260 182 415 \, 305;
#X msg 320 182 440;
#X msg 353 182 466 \, 164;
#X msg 412 181 493 \, 883;
#X msg 471 180 523 \, 251;
#X msg 532 179 554 \, 365;
#X msg 592 179 587 \, 330;
#X msg 652 177 622 \, 254;
#X msg 714 177 659 \, 255;
#X msg 774 178 698 \, 456;
#X msg 836 178 739 \, 989;
#X msg 896 179 783 \, 991;
#X msg 955 180 830 \, 609;
#X msg 1049 180 932 \, 328;
#X msg 1112 179 987 \, 767;
#X msg 1168 181 1046 \, 50;
#X msg 1234 182 1108 \, 73;
#X obj 566 358 r silencio;
#X msg 565 402 0;
#X obj -317 25 r notas2;
#X connect 0 0 2 0;
#X connect 1 0 2 0;
#X connect 2 0 47 0;
#X connect 2 0 56 0;
#X connect 3 0 7 1;
#X connect 3 0 31 0;
#X connect 5 0 50 0;
#X connect 6 0 7 0;
#X connect 7 0 5 0;
#X connect 9 0 52 0;
#X connect 10 0 11 0;
#X connect 11 0 9 0;
#X connect 12 0 10 0;
#X connect 13 0 11 1;
#X connect 13 0 34 0;
#X connect 13 0 35 0;
#X connect 15 0 49 0;
#X connect 16 0 17 0;
#X connect 17 0 15 0;
#X connect 18 0 16 0;
#X connect 19 0 17 1;
#X connect 19 0 36 0;
#X connect 19 0 37 0;
#X connect 21 0 48 0;
#X connect 22 0 23 0;
#X connect 23 0 21 0;
#X connect 24 0 22 0;
#X connect 25 0 23 1;
#X connect 25 0 33 0;
#X connect 25 0 38 0;
#X connect 27 0 51 0;
#X connect 28 0 29 0;
#X connect 29 0 27 0;
#X connect 30 0 29 1;
#X connect 30 0 32 0;
#X connect 31 0 6 0;
#X connect 32 0 28 0;
#X connect 33 0 24 1;
#X connect 34 0 12 0;
#X connect 35 0 12 1;
#X connect 36 0 18 0;
#X connect 37 0 18 1;
#X connect 38 0 24 0;
#X connect 40 0 53 0;
#X connect 41 0 42 0;
#X connect 42 0 40 0;
#X connect 43 0 41 0;
#X connect 44 0 42 1;
#X connect 44 0 45 0;
#X connect 44 0 46 0;
#X connect 45 0 43 0;
#X connect 46 0 43 1;
#X connect 47 0 56 0;
#X connect 48 0 20 0;
#X connect 48 0 20 1;
#X connect 49 0 14 0;
#X connect 49 0 14 1;
#X connect 50 0 4 0;
#X connect 50 0 4 1;
#X connect 51 0 26 0;
#X connect 51 0 26 1;
#X connect 52 0 8 0;
#X connect 52 0 8 1;
#X connect 53 0 39 0;
#X connect 53 0 39 1;
#X connect 55 0 57 0;
#X connect 56 0 30 0;
#X connect 56 1 25 0;
#X connect 56 2 19 0;
#X connect 56 3 13 0;
#X connect 56 4 44 0;
#X connect 56 6 3 0;
#X connect 57 0 58 0;
#X connect 57 1 59 0;
#X connect 57 2 60 0;
#X connect 57 3 61 0;
#X connect 57 4 62 0;
#X connect 57 5 63 0;
#X connect 57 6 64 0;
#X connect 57 7 65 0;
#X connect 57 8 0 0;
#X connect 57 9 66 0;
#X connect 57 10 67 0;
#X connect 57 11 68 0;
#X connect 57 12 69 0;
#X connect 57 13 70 0;
#X connect 57 14 71 0;
#X connect 57 15 72 0;
#X connect 57 16 73 0;
#X connect 57 17 74 0;
#X connect 57 18 75 0;
#X connect 57 19 76 0;
#X connect 57 20 77 0;
#X connect 57 21 78 0;
#X connect 57 22 79 0;
#X connect 57 23 80 0;
#X connect 57 24 81 0;
#X connect 57 25 82 0;
#X connect 57 26 83 0;
#X connect 57 27 84 0;
#X connect 57 28 85 0;
#X connect 57 29 86 0;
#X connect 57 30 87 0;
#X connect 57 31 88 0;
#X connect 57 32 1 0;
#X connect 57 33 89 0;
#X connect 57 34 90 0;
#X connect 57 35 91 0;
#X connect 57 36 92 0;
#X connect 58 0 2 0;
#X connect 59 0 2 0;
#X connect 60 0 2 0;
#X connect 61 0 2 0;
#X connect 62 0 2 0;
#X connect 63 0 2 0;
#X connect 64 0 2 0;
#X connect 65 0 2 0;
#X connect 66 0 2 0;
#X connect 67 0 2 0;
#X connect 68 0 2 0;
#X connect 69 0 2 0;
#X connect 70 0 2 0;
#X connect 71 0 2 0;
#X connect 72 0 2 0;
#X connect 73 0 2 0;
#X connect 74 0 2 0;
#X connect 75 0 2 0;
#X connect 76 0 2 0;
#X connect 77 0 2 0;
#X connect 78 0 2 0;
#X connect 79 0 2 0;
#X connect 80 0 2 0;
#X connect 81 0 2 0;
#X connect 82 0 2 0;
#X connect 83 0 2 0;
#X connect 84 0 2 0;
#X connect 85 0 2 0;
#X connect 86 0 2 0;
#X connect 87 0 2 0;
#X connect 88 0 2 0;
#X connect 89 0 2 0;
#X connect 90 0 2 0;
#X connect 91 0 2 0;
#X connect 92 0 2 0;
#X connect 93 0 94 0;
#X connect 94 0 6 0;
#X connect 94 0 41 0;
#X connect 94 0 10 0;
#X connect 94 0 16 0;
#X connect 94 0 22 0;
#X connect 94 0 28 0;
#X connect 95 0 55 0;
#X restore 128 13 pd clase2;
#N canvas 0 59 1366 681 clase3 0;
#X msg -382 181 220;
#X msg 1014 179 880;
#X obj 117 293 * 1;
#X floatatom 333 416 5 0 0 0 - - -;
#X obj 369 610 dac~;
#X obj 369 525 osc~;
#X obj 354 474 tgl 15 0 empty empty empty 17 7 0 10 -262144 -1 -1 0
1;
#X obj 375 496 *;
#X obj 156 660 dac~;
#X obj 170 596 osc~;
#X obj 169 533 tgl 15 0 empty empty empty 17 7 0 10 -262144 -1 -1 0
1;
#X obj 179 562 *;
#X obj 170 504 &&;
#X floatatom 183 439 5 0 0 0 - - -;
#X obj 56 656 dac~;
#X obj 70 592 osc~;
#X obj 69 529 tgl 15 0 empty empty empty 17 7 0 10 -262144 -1 -1 1
1;
#X obj 79 558 *;
#X obj 70 500 &&;
#X floatatom 83 435 5 0 0 0 - - -;
#X obj -41 652 dac~;
#X obj -27 588 osc~;
#X obj -28 525 tgl 15 0 empty empty empty 17 7 0 10 -262144 -1 -1 0
1;
#X obj -18 554 *;
#X obj -27 496 &&;
#X floatatom -14 431 5 0 0 0 - - -;
#X obj -138 609 dac~;
#X obj -132 553 osc~;
#X obj -128 504 tgl 15 0 empty empty empty 17 7 0 10 -262144 -1 -1
0 1;
#X obj -130 526 *;
#X floatatom -93 445 5 0 0 0 - - -;
#X obj 357 446 < 207;
#X obj -127 478 >= 880;
#X obj 2 465 < 880;
#X obj 149 472 >= 329;
#X obj 200 473 < 493;
#X obj 49 468 >= 493;
#X obj 99 469 < 659;
#X obj -50 464 >= 659;
#X obj 258 641 dac~;
#X obj 272 577 osc~;
#X obj 271 514 tgl 15 0 empty empty empty 17 7 0 10 -262144 -1 -1 0
1;
#X obj 281 543 *;
#X obj 272 485 &&;
#X floatatom 285 420 5 0 0 0 - - -;
#X obj 251 453 >= 207;
#X obj 301 454 < 329;
#X obj 121 322 * 1;
#X obj -30 620 *~ 0.15;
#X obj 68 621 *~ 0.2;
#X obj 370 564 *~ 0.95;
#X obj -134 578 *~ 0.06;
#X obj 168 625 *~ 0.35;
#X obj 270 608 *~ 0.4;
#X text -274 81 notas de c#3 - c#6;
#X floatatom -321 69 5 0 0 0 - - -;
#X obj 87 349 t f f f f f f f;
#X obj -333 105 select 0 1 2 3 4 5 6 7 8 9 10 11 12 13 14 15 16 17
18 19 20 21 22 23 24 25 26 27 28 29 30 31 32 33 34 35, f 156;
#X msg -880 178 138 \, 591;
#X msg -822 180 146 \, 832;
#X msg -756 180 155 \, 563;
#X msg -695 180 164 \, 814;
#X msg -632 179 174 \, 614;
#X msg -573 178 184 \, 997;
#X msg -511 179 195 \, 998;
#X msg -449 180 207 \, 652;
#X msg -349 181 233 \, 82;
#X msg -288 182 246 \, 942;
#X msg -228 183 261 \, 626;
#X msg -167 182 277 \, 183;
#X msg -111 182 293 \, 665;
#X msg -51 183 311 \, 127;
#X msg 10 183 329 \, 628;
#X msg 74 183 349 \, 228;
#X msg 138 183 369 \, 994;
#X msg 197 182 391 \, 995;
#X msg 260 182 415 \, 305;
#X msg 320 182 440;
#X msg 353 182 466 \, 164;
#X msg 412 181 493 \, 883;
#X msg 471 180 523 \, 251;
#X msg 532 179 554 \, 365;
#X msg 592 179 587 \, 330;
#X msg 652 177 622 \, 254;
#X msg 714 177 659 \, 255;
#X msg 774 178 698 \, 456;
#X msg 836 178 739 \, 989;
#X msg 896 179 783 \, 991;
#X msg 955 180 830 \, 609;
#X msg 1049 180 932 \, 328;
#X msg 1112 179 987 \, 767;
#X msg 1168 181 1046 \, 50;
#X msg 1234 182 1108 \, 73;
#X obj 566 358 r silencio;
#X msg 565 402 0;
#X obj -317 25 r notas3;
#X connect 0 0 2 0;
#X connect 1 0 2 0;
#X connect 2 0 47 0;
#X connect 2 0 56 0;
#X connect 3 0 7 1;
#X connect 3 0 31 0;
#X connect 5 0 50 0;
#X connect 6 0 7 0;
#X connect 7 0 5 0;
#X connect 9 0 52 0;
#X connect 10 0 11 0;
#X connect 11 0 9 0;
#X connect 12 0 10 0;
#X connect 13 0 11 1;
#X connect 13 0 34 0;
#X connect 13 0 35 0;
#X connect 15 0 49 0;
#X connect 16 0 17 0;
#X connect 17 0 15 0;
#X connect 18 0 16 0;
#X connect 19 0 17 1;
#X connect 19 0 36 0;
#X connect 19 0 37 0;
#X connect 21 0 48 0;
#X connect 22 0 23 0;
#X connect 23 0 21 0;
#X connect 24 0 22 0;
#X connect 25 0 23 1;
#X connect 25 0 33 0;
#X connect 25 0 38 0;
#X connect 27 0 51 0;
#X connect 28 0 29 0;
#X connect 29 0 27 0;
#X connect 30 0 29 1;
#X connect 30 0 32 0;
#X connect 31 0 6 0;
#X connect 32 0 28 0;
#X connect 33 0 24 1;
#X connect 34 0 12 0;
#X connect 35 0 12 1;
#X connect 36 0 18 0;
#X connect 37 0 18 1;
#X connect 38 0 24 0;
#X connect 40 0 53 0;
#X connect 41 0 42 0;
#X connect 42 0 40 0;
#X connect 43 0 41 0;
#X connect 44 0 42 1;
#X connect 44 0 45 0;
#X connect 44 0 46 0;
#X connect 45 0 43 0;
#X connect 46 0 43 1;
#X connect 47 0 56 0;
#X connect 48 0 20 0;
#X connect 48 0 20 1;
#X connect 49 0 14 0;
#X connect 49 0 14 1;
#X connect 50 0 4 0;
#X connect 50 0 4 1;
#X connect 51 0 26 0;
#X connect 51 0 26 1;
#X connect 52 0 8 0;
#X connect 52 0 8 1;
#X connect 53 0 39 0;
#X connect 53 0 39 1;
#X connect 55 0 57 0;
#X connect 56 0 30 0;
#X connect 56 1 25 0;
#X connect 56 2 19 0;
#X connect 56 3 13 0;
#X connect 56 4 44 0;
#X connect 56 6 3 0;
#X connect 57 0 58 0;
#X connect 57 1 59 0;
#X connect 57 2 60 0;
#X connect 57 3 61 0;
#X connect 57 4 62 0;
#X connect 57 5 63 0;
#X connect 57 6 64 0;
#X connect 57 7 65 0;
#X connect 57 8 0 0;
#X connect 57 9 66 0;
#X connect 57 10 67 0;
#X connect 57 11 68 0;
#X connect 57 12 69 0;
#X connect 57 13 70 0;
#X connect 57 14 71 0;
#X connect 57 15 72 0;
#X connect 57 16 73 0;
#X connect 57 17 74 0;
#X connect 57 18 75 0;
#X connect 57 19 76 0;
#X connect 57 20 77 0;
#X connect 57 21 78 0;
#X connect 57 22 79 0;
#X connect 57 23 80 0;
#X connect 57 24 81 0;
#X connect 57 25 82 0;
#X connect 57 26 83 0;
#X connect 57 27 84 0;
#X connect 57 28 85 0;
#X connect 57 29 86 0;
#X connect 57 30 87 0;
#X connect 57 31 88 0;
#X connect 57 32 1 0;
#X connect 57 33 89 0;
#X connect 57 34 90 0;
#X connect 57 35 91 0;
#X connect 57 36 92 0;
#X connect 58 0 2 0;
#X connect 59 0 2 0;
#X connect 60 0 2 0;
#X connect 61 0 2 0;
#X connect 62 0 2 0;
#X connect 63 0 2 0;
#X connect 64 0 2 0;
#X connect 65 0 2 0;
#X connect 66 0 2 0;
#X connect 67 0 2 0;
#X connect 68 0 2 0;
#X connect 69 0 2 0;
#X connect 70 0 2 0;
#X connect 71 0 2 0;
#X connect 72 0 2 0;
#X connect 73 0 2 0;
#X connect 74 0 2 0;
#X connect 75 0 2 0;
#X connect 76 0 2 0;
#X connect 77 0 2 0;
#X connect 78 0 2 0;
#X connect 79 0 2 0;
#X connect 80 0 2 0;
#X connect 81 0 2 0;
#X connect 82 0 2 0;
#X connect 83 0 2 0;
#X connect 84 0 2 0;
#X connect 85 0 2 0;
#X connect 86 0 2 0;
#X connect 87 0 2 0;
#X connect 88 0 2 0;
#X connect 89 0 2 0;
#X connect 90 0 2 0;
#X connect 91 0 2 0;
#X connect 92 0 2 0;
#X connect 93 0 94 0;
#X connect 94 0 6 0;
#X connect 94 0 41 0;
#X connect 94 0 10 0;
#X connect 94 0 16 0;
#X connect 94 0 22 0;
#X connect 94 0 28 0;
#X connect 95 0 55 0;
#X restore 128 40 pd clase3;
#X obj -326 105 select 0 1 2 3 4 5 6 7 8 9 10 11 12 13 14 15 16 17
18 19 20 21 22 23 24 25 26 27 28 29 30 31 32 33 34 35, f 156;
#X text 1720 134 XM \, Xm \, 5ta \, 7M \, 7m;
#X connect 0 0 2 0;
#X connect 1 0 2 0;
#X connect 2 0 47 0;
#X connect 2 0 96 0;
#X connect 3 0 7 1;
#X connect 3 0 31 0;
#X connect 5 0 50 0;
#X connect 6 0 7 0;
#X connect 7 0 5 0;
#X connect 9 0 52 0;
#X connect 10 0 11 0;
#X connect 11 0 9 0;
#X connect 12 0 10 0;
#X connect 13 0 11 1;
#X connect 13 0 34 0;
#X connect 13 0 35 0;
#X connect 15 0 49 0;
#X connect 16 0 17 0;
#X connect 17 0 15 0;
#X connect 18 0 16 0;
#X connect 19 0 17 1;
#X connect 19 0 36 0;
#X connect 19 0 37 0;
#X connect 21 0 48 0;
#X connect 22 0 23 0;
#X connect 23 0 21 0;
#X connect 24 0 22 0;
#X connect 25 0 23 1;
#X connect 25 0 33 0;
#X connect 25 0 38 0;
#X connect 27 0 51 0;
#X connect 28 0 29 0;
#X connect 29 0 27 0;
#X connect 30 0 29 1;
#X connect 30 0 32 0;
#X connect 31 0 6 0;
#X connect 32 0 28 0;
#X connect 33 0 24 1;
#X connect 34 0 12 0;
#X connect 35 0 12 1;
#X connect 36 0 18 0;
#X connect 37 0 18 1;
#X connect 38 0 24 0;
#X connect 40 0 53 0;
#X connect 41 0 42 0;
#X connect 42 0 40 0;
#X connect 43 0 41 0;
#X connect 44 0 42 1;
#X connect 44 0 45 0;
#X connect 44 0 46 0;
#X connect 45 0 43 0;
#X connect 46 0 43 1;
#X connect 47 0 96 0;
#X connect 48 0 20 0;
#X connect 48 0 20 1;
#X connect 49 0 14 0;
#X connect 49 0 14 1;
#X connect 50 0 4 0;
#X connect 50 0 4 1;
#X connect 51 0 26 0;
#X connect 51 0 26 1;
#X connect 52 0 8 0;
#X connect 52 0 8 1;
#X connect 53 0 39 0;
#X connect 53 0 39 1;
#X connect 54 0 61 0;
#X connect 54 0 55 0;
#X connect 55 0 154 0;
#X connect 56 0 54 0;
#X connect 57 0 56 0;
#X connect 58 0 57 0;
#X connect 59 0 54 1;
#X connect 60 0 91 1;
#X connect 62 0 64 1;
#X connect 63 0 64 0;
#X connect 64 0 139 0;
#X connect 64 0 140 0;
#X connect 65 0 63 0;
#X connect 68 0 70 1;
#X connect 69 0 70 0;
#X connect 70 0 102 0;
#X connect 70 0 141 0;
#X connect 71 0 69 0;
#X connect 72 0 74 1;
#X connect 73 0 74 0;
#X connect 74 0 148 0;
#X connect 75 0 73 0;
#X connect 80 0 82 1;
#X connect 81 0 82 0;
#X connect 82 0 142 0;
#X connect 82 0 143 0;
#X connect 82 0 144 0;
#X connect 83 0 81 0;
#X connect 87 0 89 1;
#X connect 88 0 89 0;
#X connect 89 0 145 0;
#X connect 89 0 146 0;
#X connect 89 0 147 0;
#X connect 90 0 88 0;
#X connect 91 0 94 0;
#X connect 92 0 91 0;
#X connect 93 0 92 0;
#X connect 94 0 97 0;
#X connect 95 0 93 0;
#X connect 96 0 30 0;
#X connect 96 1 25 0;
#X connect 96 2 19 0;
#X connect 96 3 13 0;
#X connect 96 4 44 0;
#X connect 96 6 3 0;
#X connect 97 0 65 0;
#X connect 97 1 71 0;
#X connect 97 2 75 0;
#X connect 97 3 83 0;
#X connect 97 4 90 0;
#X connect 100 0 101 0;
#X connect 102 0 66 0;
#X connect 103 0 2 0;
#X connect 104 0 2 0;
#X connect 105 0 2 0;
#X connect 106 0 2 0;
#X connect 107 0 2 0;
#X connect 108 0 2 0;
#X connect 109 0 2 0;
#X connect 110 0 2 0;
#X connect 111 0 2 0;
#X connect 112 0 2 0;
#X connect 113 0 2 0;
#X connect 114 0 2 0;
#X connect 115 0 2 0;
#X connect 116 0 2 0;
#X connect 117 0 2 0;
#X connect 118 0 2 0;
#X connect 119 0 2 0;
#X connect 120 0 2 0;
#X connect 121 0 2 0;
#X connect 122 0 2 0;
#X connect 123 0 2 0;
#X connect 124 0 2 0;
#X connect 125 0 2 0;
#X connect 126 0 2 0;
#X connect 127 0 2 0;
#X connect 128 0 2 0;
#X connect 129 0 2 0;
#X connect 130 0 2 0;
#X connect 131 0 2 0;
#X connect 132 0 2 0;
#X connect 133 0 2 0;
#X connect 134 0 2 0;
#X connect 135 0 2 0;
#X connect 136 0 2 0;
#X connect 137 0 2 0;
#X connect 138 0 6 0;
#X connect 138 0 41 0;
#X connect 138 0 10 0;
#X connect 138 0 16 0;
#X connect 138 0 22 0;
#X connect 138 0 28 0;
#X connect 139 0 99 0;
#X connect 140 0 98 0;
#X connect 141 0 67 0;
#X connect 142 0 77 0;
#X connect 143 0 78 0;
#X connect 144 0 79 0;
#X connect 145 0 84 0;
#X connect 146 0 85 0;
#X connect 147 0 86 0;
#X connect 148 0 76 0;
#X connect 149 0 138 0;
#X connect 154 0 103 0;
#X connect 154 1 104 0;
#X connect 154 2 105 0;
#X connect 154 3 106 0;
#X connect 154 4 107 0;
#X connect 154 5 108 0;
#X connect 154 6 109 0;
#X connect 154 7 110 0;
#X connect 154 8 0 0;
#X connect 154 9 111 0;
#X connect 154 10 112 0;
#X connect 154 11 113 0;
#X connect 154 12 114 0;
#X connect 154 13 115 0;
#X connect 154 14 116 0;
#X connect 154 15 117 0;
#X connect 154 16 118 0;
#X connect 154 17 119 0;
#X connect 154 18 120 0;
#X connect 154 19 121 0;
#X connect 154 20 122 0;
#X connect 154 21 123 0;
#X connect 154 22 124 0;
#X connect 154 23 125 0;
#X connect 154 24 126 0;
#X connect 154 25 127 0;
#X connect 154 26 128 0;
#X connect 154 27 129 0;
#X connect 154 28 130 0;
#X connect 154 29 131 0;
#X connect 154 30 132 0;
#X connect 154 31 133 0;
#X connect 154 32 1 0;
#X connect 154 33 134 0;
#X connect 154 34 135 0;
#X connect 154 35 136 0;
#X connect 154 36 137 0;
#X restore 190 73 pd sonidos;
#X obj 661 395 *;
#X obj 661 498 cos;
#X floatatom 661 530 5 0 0 0 - - -;
#X obj 661 433 *;
#X msg 722 433 6.2832;
#X obj 333 252 *;
#X floatatom 333 398 5 0 0 0 - - -;
#X obj 333 292 *;
#X msg 386 291 6.2832;
#X obj 333 364 sin;
#X floatatom 661 466 5 0 0 0 - - -;
#X floatatom 333 328 5 0 0 0 - - -;
#X obj 439 226 tgl 15 0 empty empty empty 17 7 0 10 -262144 -1 -1 0
1;
#X obj 722 389 tgl 15 0 empty empty empty 17 7 0 10 -262144 -1 -1 0
1;
#X obj 333 497 int;
#X obj 661 592 int;
#X text 641 531 x;
#X text 315 394 y;
#X obj 661 625 s x;
#X obj 333 534 s y;
#N canvas -8 -8 1366 685 grafica2 1;
#X obj -81 33 r x;
#X obj -84 66 >= 0;
#X obj -83 98 select 0 1;
#X obj -19 154 tgl 15 0 empty empty empty 17 7 0 10 -262144 -1 -1 0
1;
#X floatatom -7 239 5 0 0 0 - - -;
#X obj -18 178 bng 15 250 50 0 empty empty empty 17 7 0 10 -262144
-1 -1;
#X floatatom 13 175 5 0 0 0 - - -;
#X obj -12 204 int;
#X obj 23 145 r x;
#X obj 148 88 select 0 1;
#X obj 152 59 >= 0;
#X obj 155 26 r y;
#X obj 99 142 tgl 15 0 empty empty empty 17 7 0 10 -262144 -1 -1 0
1;
#X floatatom 107 227 5 0 0 0 - - -;
#X obj 100 166 bng 15 250 50 0 empty empty empty 17 7 0 10 -262144
-1 -1;
#X floatatom 131 163 5 0 0 0 - - -;
#X obj 106 192 int;
#X text 60 138 nega;
#X obj 209 146 tgl 15 0 empty empty empty 17 7 0 10 -262144 -1 -1 1
1;
#X floatatom 217 231 5 0 0 0 - - -;
#X obj 210 170 bng 15 250 50 0 empty empty empty 17 7 0 10 -262144
-1 -1;
#X floatatom 241 167 5 0 0 0 - - -;
#X obj 216 196 int;
#X text -26 123 posi;
#X text 205 115 posi;
#X obj 141 133 r y;
#X obj 251 137 r y;
#X obj 255 339 tabwrite grafico4;
#X obj -19 335 tabwrite grafico2;
#X msg 384 443 \; grafico4 resize 500;
#X msg -37 444 \; grafico2 resize 500;
#X msg -34 539 \; grafico2 xticks 0 100 1;
#X msg -35 589 \; grafico2 yticks 0 100 1;
#X msg 382 542 \; grafico4 xticks 0 100 1;
#X msg 381 592 \; grafico4 yticks 0 100 1;
#X obj -156 337 tabwrite grafico1;
#X obj 120 339 tabwrite grafico3;
#X obj -130 138 tgl 15 0 empty empty empty 17 7 0 10 -262144 -1 -1
1 1;
#X floatatom -124 251 5 0 0 0 - - -;
#X obj -129 162 bng 15 250 50 0 empty empty empty 17 7 0 10 -262144
-1 -1;
#X floatatom -98 159 5 0 0 0 - - -;
#X obj -123 188 int;
#X obj -88 129 r x;
#X text -166 138 nega;
#X obj -123 224 * -1;
#X text -160 360 y +;
#X text 75 363 x +;
#X text -13 362 y +;
#X text 351 365 x +;
#X text 124 363 y -;
#X text 266 361 y -;
#X text -108 363 force x +;
#X text 174 366 force x +;
#X text -160 360 y +;
#X msg -243 446 \; grafico1 resize 500;
#X msg -239 541 \; grafico1 xticks 0 100 1;
#X msg -243 591 \; grafico1 yticks 0 100 1;
#X msg 172 442 \; grafico3 resize 500;
#X msg 170 542 \; grafico3 xticks 0 100 1;
#X msg 169 592 \; grafico3 yticks 0 100 1;
#X msg -244 495 \; grafico1 bounds 0 0 500 500;
#X msg -38 493 \; grafico2 bounds 0 0 500 500;
#X msg 171 493 \; grafico3 bounds 0 0 500 500;
#X msg 383 493 \; grafico4 bounds 0 0 500 500;
#N canvas 0 50 450 250 (subpatch) 0;
#X array grafico1 500 float 3;
#A 0 500 0 0 500 422 500 174 472 90 84 311 500 88 33 295 441 282 139
500 140 475 55 8 252 500 440 333 388 467 220 156 500 464 69 317 0 187
499 63 19 0 323 188 154 499 0 27 410 453 119 401 498 450 33 19 0 21
497 105 305 0 344 12 429 496 388 382 350 454 6 496 354 433 462 470
500 174 495 103 351 484 443 437 493 380 384 369 500 470 492 495 276
374 0 465 379 491 21 0 405 154 459 490 0 0 462 397 25 440 488 392 426
392 73 491 487 252 495 397 33 472 485 300 245 474 374 499 499 484 369
360 0 48 207 482 498 310 414 42 483 480 479 57 418 350 498 269 478
344 282 330 494 440 476 213 0 489 119 491 474 212 499 433 170 402 472
203 317 437 69 472 470 239 334 429 84 500 495 468 161 498 295 448 328
465 180 351 450 494 239 463 488 269 453 500 467 460 447 0 500 401 470
458 258 252 0 96 465 455 103 409 464 500 485 452 146 467 234 341 0
450 226 410 298 318 447 189 127 0 459 498 444 0 161 477 105 269 441
119 160 479 0 270 437 111 499 258 494 479 434 0 492 168 131 431 499
160 486 154 161 428 0 488 48 487 424 84 162 485 0 479 421 75 193 500
73 417 474 269 494 477 477 413 499 495 98 13 410 69 203 170 477 300
406 247 426 148 465 402 40 462 498 310 398 55 499 174 53 394 33 365
12 451 390 485 212 447 83 386 12 19 500 464 382 500 4 500 434 377 454
215 429 33 373 282 258 483 69 369 491 239 500 415 364 73 499 207 140
360 500 84 174 355 269 481 498 393 350 434 497 450 239 346 182 496
270 341 448 154 295 370 336 259 365 328 331 497 491 354 326 483 490
345 321 55 339 221 401 316 119 494 422 311 148 483 318 306 271 481
456 301 289 283 470 296 314 362 290 500 472 490 285 344 470 496 280
283 339 259 274 252 500 269 84 459 499 263 456 228 257 500 221 252
500 493 479 246 444 195 240 440 453 235 252 429 229 464 162 223 426
397 217 422 374 211 462 205 422 119 199 406 295 193 401 187 84 181
370 201 175 384 169 379 163 498 156 207 150 360 144 354 138 500 131
40 125 119 33 112 106 100 306 93 87 80 74 67 54 48 2;
#X coords 0 0 500 500 250 250 1 0 0;
#X restore 564 163 graph;
#N canvas 0 50 450 250 (subpatch) 0;
#X array grafico2 500 float 3;
#A 0 265 2 364 124 88 139 4 500 496 388 488 63 434 437 500 410 339
258 98 239 500 499 429 465 364 174 33 500 447 0 311 12 270 499 397
462 453 234 383 0 499 418 474 125 0 207 388 498 485 488 282 133 0 498
365 492 203 281 328 456 497 498 0 201 239 500 496 0 500 193 252 405
0 495 500 252 160 0 13 494 498 329 305 168 500 493 456 492 499 168
472 0 492 485 221 160 459 401 491 69 475 0 256 425 200 489 462 492
193 437 422 488 0 447 0 133 201 486 410 429 125 351 328 0 485 410 467
154 0 52 483 481 388 283 498 443 481 495 365 391 226 354 453 480 339
283 90 234 470 478 312 394 436 418 0 476 33 283 391 170 379 474 0 252
470 63 459 375 471 221 312 258 490 33 469 188 424 0 265 459 467 154
215 48 500 496 464 119 312 27 498 0 462 84 339 19 422 472 459 479 48
288 0 220 457 323 12 454 295 500 454 500 0 6 440 426 451 124 365 422
418 499 448 370 12 0 483 200 445 456 69 317 456 499 442 33 401 443
323 439 221 388 42 0 488 436 393 0 0 470 418 433 448 379 453 491 430
295 477 344 499 323 426 441 69 174 350 0 423 415 78 401 494 419 440
239 207 453 416 352 450 68 490 497 412 437 429 369 437 408 68 105 146
374 0 404 400 113 496 479 400 414 300 75 295 397 265 447 117 500 392
451 84 392 499 388 422 140 270 397 384 193 369 148 484 380 330 462
354 500 376 465 350 239 500 371 119 379 414 323 367 317 174 418 215
362 475 182 295 133 358 477 302 84 353 401 422 495 498 349 258 433
465 344 499 207 437 234 339 487 215 488 334 203 140 483 418 329 193
146 494 324 492 450 479 319 239 105 453 314 201 247 133 309 125 239
467 304 498 69 487 299 498 464 28 294 270 496 467 288 55 277 201 283
500 27 277 500 187 477 272 454 477 266 33 300 479 261 306 418 255 21
201 234 250 495 465 244 174 486 238 328 488 232 334 118 227 57 75 221
300 451 215 494 288 209 388 203 379 360 197 92 191 485 434 185 498
179 379 499 173 384 166 474 160 424 154 500 148 401 142 406 135 129
323 123 118 116 110 426 103 97 91 84 78 71 65 58 52 39;
#X coords 0 0 500 500 250 250 1 0 0;
#X restore 814 163 graph;
#N canvas 0 50 450 250 (subpatch) 0;
#X array grafico3 500 float 3;
#A 0 0 0 0 -11 -482 -209 -50 -452 -29 -466 -500 -474 -458 -211 -276
-38 -500 -291 -484 -495 -288 -482 -29 -500 -484 -331 -209 -249 -23
-500 -217 -118 -205 -73 -490 0 -499 -492 -249 -499 0 -267 -487 -499
-466 0 -499 -482 -496 -498 -473 -497 -14 -65 -252 0 -497 -315 -2 -246
0 -500 -497 -357 -500 -488 -500 -2 -2 -496 -499 -191 -500 -312 -296
-495 -478 -10 -8 -211 -197 -494 -488 -67 -38 -346 -16 -23 -493 -498
-424 -500 -205 0 -491 -230 -46 -499 0 -494 -493 -490 -493 0 0 -5 -325
-489 -487 -205 -109 -44 -487 -331 -487 -82 -487 -496 -52 -157 -486
-268 -158 -495 -416 -478 -484 -483 -475 -485 -109 0 -230 -482 -117
-308 -178 -351 -94 -481 -463 -472 -80 -237 -324 -479 -471 -377 -489
-144 -88 -477 -370 -152 -475 0 -468 -497 -475 -420 -279 -243 -435 -129
-473 -431 -381 -482 -144 -376 -471 -186 -478 -115 -357 -416 -468 -474
-411 -404 -123 -261 -466 -115 -480 -303 -211 -395 -464 -458 -218 -466
-471 -268 -461 -478 -495 -468 0 -399 -458 -500 -366 -357 -150 0 -456
-129 -250 -357 -109 -158 -453 -386 -340 -70 -458 -224 -450 0 -495 -454
-377 -320 -447 -281 -466 -363 0 -419 -444 -480 0 -184 -291 -424 -441
-284 -463 -442 -191 0 -438 -310 -438 -77 -261 -435 -237 -254 0 -73
-342 -432 -419 -495 -331 -438 -261 -428 -337 0 -217 -500 -425 -376
-52 -419 -224 0 -421 -190 -442 -357 -320 -418 -363 -451 -471 -164 -291
-414 -156 -404 -347 -454 -411 -267 -399 -249 -129 -407 -288 -387 -500
-256 -487 -403 -203 -490 -312 -320 -399 -86 -274 -381 -365 -395 -409
-376 -414 -468 -391 -50 -458 -279 -347 -387 -65 -386 -424 -286 -383
-428 -435 -357 -353 -378 -445 -2 -351 -8 -374 -10 -16 -442 -480 -370
-446 -499 -308 -353 -365 -23 -331 -315 -44 -361 -38 -31 -376 -356 -46
-471 -5 -23 -352 -497 -487 -489 -395 -347 -211 -336 -377 -342 -59 -296
-342 -276 -337 -82 -67 -115 -332 -497 -482 -393 -328 -484 -274 -495
-323 -442 -109 -362 -496 -317 -94 -490 -367 -312 -492 -103 -59 -307
-271 -243 -184 -302 -144 -236 -499 -297 -152 -386 -500 -292 -129 -391
-286 -218 -137 -498 -281 -178 -203 -449 -275 -186 -500 -270 -404 -407
-442 -264 -164 -412 -259 -211 -172 -279 -253 -499 -296 -247 -498 -499
-242 -381 -427 -236 -197 -432 -230 -250 -205 -224 -120 -336 -218 -342
-495 -213 -445 -494 -207 -357 -201 -315 -237 -195 -73 -189 -303 -489
-183 -460 -176 -261 -170 -237 -268 -164 -29 -158 -480 -152 -473 -145
-476 -139 -133 -10 -127 -469 -120 -114 -320 -107 -101 -95 -455 -88
-82 -75 -69 -62 -49 -43;
#X coords 0 0 500 500 250 250 1 0 0;
#X restore 564 163 graph;
#N canvas 0 50 450 250 (subpatch) 0;
#X array grafico4 500 float 3;
#A 0 -499 -500 -500 -59 -458 -455 -236 -250 -53 -500 -464 -8 -487 -493
-446 -500 -23 -442 -395 -384 -150 -8 -500 -203 -29 -88 -38 -428 -500
0 -424 -372 -480 -256 -495 -499 -2 -224 -478 0 -409 -77 -499 -404 0
-14 -488 -365 -498 -178 -23 -456 0 -387 -416 -497 -170 -303 -469 -500
-256 -497 0 -103 -466 -482 -363 0 -496 -357 -416 -449 0 -279 -495 -94
-399 0 -274 -337 -494 -144 -331 -237 -455 -286 -395 -493 -136 -168
-452 0 -310 -492 -101 -303 -442 -473 -205 -372 -490 0 -331 -500 -490
-281 -489 -109 -274 -478 -439 -80 0 -488 0 -67 -435 -250 -224 -486
-101 -435 -480 0 -308 -484 -59 -500 0 -243 -218 -217 -483 -211 -210
-420 -315 -395 -481 -144 -110 -416 -496 -186 -479 -73 -178 -357 -498
-346 -477 -136 -65 -279 0 -152 -157 -475 -144 -495 -400 -271 0 -473
-144 -487 -395 -497 -117 -471 -217 -109 -451 -496 -191 -469 -38 0 -489
-211 -82 -466 -197 -29 -182 -377 -342 -464 -178 -51 -372 0 -46 -461
-430 -38 -298 -456 -8 -193 -459 -489 0 -499 -10 -20 -456 -2 -276 -353
-14 -453 0 -8 -347 -492 -50 -451 -178 -16 -494 -483 -86 -448 -230 0
-393 -490 -121 -445 -450 -404 -326 -367 -156 -442 -211 -44 -320 -190
-150 -439 -52 0 -464 -222 -435 0 0 -286 -499 -254 -432 -455 -94 -298
-284 -50 -429 -80 -291 -20 -313 -425 -261 -88 -484 0 -340 -422 -129
-499 -144 -366 -418 -308 -125 -268 -390 -123 -415 -115 -261 -494 -411
-411 -123 -164 -405 -431 -484 -407 -70 -284 0 -448 -403 -479 -5 -237
-463 -400 -291 -230 -50 -475 -396 -158 -487 -367 -485 -392 -497 -20
-474 -493 -482 -387 -230 -205 -498 -164 -383 -184 -197 -500 -88 -379
-191 -500 -500 -375 -499 -261 -424 -497 -370 -320 -120 -172 -492 -366
-343 -164 -478 -484 -361 -224 -494 -140 -474 -357 -439 -73 -461 -352
-357 -66 -137 -446 -348 -249 -129 -428 -343 -256 -405 -458 -409 -338
-346 -499 -387 -333 -495 -347 -103 -363 -328 -279 -94 -337 -323 -286
-479 -310 -318 -372 -422 -281 -313 -500 -67 -250 -308 -308 -59 -218
-303 -315 -496 -186 -298 -205 -482 -152 -292 -110 -31 -117 -287 -336
-23 -82 -282 -500 -46 -276 -499 -2 -10 -271 -435 -8 -265 -362 -445
-178 -260 -490 -29 -254 -452 -224 -248 -377 -80 -500 -243 -386 -372
-237 -466 -473 -231 -484 -246 -225 -101 -476 -219 -407 -213 -412 -184
-208 -353 -136 -202 -487 -347 -196 -404 -190 -432 -484 -183 -271 -177
-279 -171 -445 -165 -449 -159 -376 -243 -153 -146 -460 -140 -463 -134
-267 -127 -386 -121 -115 -296 -108 -102 -96 -89 -486 -83 -76 -63 -57
-50 -11;
#X coords 0 0 500 500 250 250 1 0 0;
#X restore 814 163 graph;
#X obj 149 -78 *~;
#X obj 148 -117 osc~;
#X floatatom 146 -146 5 0 0 0 - - -;
#X obj 241 -85 tgl 15 0 empty empty empty 17 7 0 10 -262144 -1 -1 0
1;
#X floatatom 190 -110 5 0 0 0 - - -;
#X obj -174 -97 *~;
#X obj -175 -136 osc~;
#X floatatom -177 -165 5 0 0 0 - - -;
#X obj -82 -104 tgl 15 0 empty empty empty 17 7 0 10 -262144 -1 -1
0 1;
#X floatatom -133 -129 5 0 0 0 - - -;
#X obj 0 -92 *~;
#X obj -1 -131 osc~;
#X floatatom -3 -160 5 0 0 0 - - -;
#X obj 92 -99 tgl 15 0 empty empty empty 17 7 0 10 -262144 -1 -1 0
1;
#X floatatom 41 -124 5 0 0 0 - - -;
#X obj -170 -34 tabwrite~ grafico1;
#X obj 4 -29 tabwrite~ grafico2;
#X obj 150 -28 tabwrite~ grafico3;
#X obj 289 -89 *~;
#X obj 288 -128 osc~;
#X floatatom 286 -157 5 0 0 0 - - -;
#X obj 381 -96 tgl 15 0 empty empty empty 17 7 0 10 -262144 -1 -1 0
1;
#X floatatom 330 -121 5 0 0 0 - - -;
#X obj 293 -26 tabwrite~ grafico4;
#X obj 193 -242 r clean;
#X obj -123 -75 metro 2;
#X obj 51 -70 metro 2;
#X obj 200 -56 metro 2;
#X obj 340 -67 metro 2;
#X connect 0 0 1 0;
#X connect 1 0 2 0;
#X connect 2 0 37 0;
#X connect 2 1 3 0;
#X connect 3 0 5 0;
#X connect 4 0 28 1;
#X connect 4 0 27 1;
#X connect 5 0 7 0;
#X connect 6 0 7 1;
#X connect 7 0 4 0;
#X connect 8 0 6 0;
#X connect 9 0 12 0;
#X connect 9 1 18 0;
#X connect 10 0 9 0;
#X connect 11 0 10 0;
#X connect 12 0 14 0;
#X connect 13 0 36 0;
#X connect 13 0 27 0;
#X connect 14 0 16 0;
#X connect 15 0 16 1;
#X connect 16 0 13 0;
#X connect 18 0 20 0;
#X connect 19 0 35 0;
#X connect 19 0 28 0;
#X connect 20 0 22 0;
#X connect 21 0 22 1;
#X connect 22 0 19 0;
#X connect 25 0 15 0;
#X connect 26 0 21 0;
#X connect 37 0 39 0;
#X connect 38 0 35 1;
#X connect 38 0 36 1;
#X connect 39 0 41 0;
#X connect 40 0 41 1;
#X connect 41 0 44 0;
#X connect 42 0 40 0;
#X connect 44 0 38 0;
#X connect 68 0 85 0;
#X connect 69 0 68 0;
#X connect 70 0 69 0;
#X connect 71 0 95 0;
#X connect 72 0 68 1;
#X connect 73 0 83 0;
#X connect 74 0 73 0;
#X connect 75 0 74 0;
#X connect 76 0 93 0;
#X connect 77 0 73 1;
#X connect 78 0 84 0;
#X connect 79 0 78 0;
#X connect 80 0 79 0;
#X connect 81 0 94 0;
#X connect 82 0 78 1;
#X connect 86 0 91 0;
#X connect 87 0 86 0;
#X connect 88 0 87 0;
#X connect 89 0 96 0;
#X connect 90 0 86 1;
#X connect 92 0 89 0;
#X connect 92 0 71 0;
#X connect 92 0 81 0;
#X connect 92 0 76 0;
#X connect 93 0 83 0;
#X connect 94 0 84 0;
#X connect 95 0 85 0;
#X connect 96 0 91 0;
#X restore 188 144 pd grafica2;
#X text 738 580 a=500;
#X text 385 461 b=500;
#X obj 894 267 line;
#X floatatom 894 303 5 0 0 0 - - -;
#X floatatom 322 216 5 0 0 0 - - -;
#X floatatom 661 318 5 0 0 0 - - -;
#X text 889 143 0-t-10;
#X obj 661 248 line;
#X obj 322 184 line;
#X obj 533 90 bng 15 250 50 0 empty empty empty 17 7 0 10 -262144 -1
-1;
#X obj 322 87 tgl 15 0 empty empty empty 17 7 0 10 -262144 -1 -1 0
1;
#X text 763 186 N-10;
#X text 305 62 M-10;
#X obj 894 163 tgl 15 0 empty empty empty 17 7 0 10 -262144 -1 -1 0
1;
#X obj 894 194 metro 10000;
#X obj 719 317 == 9;
#X obj 779 294 tgl 15 0 empty empty empty 17 7 0 10 -262144 -1 -1 0
1;
#X obj 711 263 metro 0;
#X obj 775 142 t b a;
#X text 296 217 M;
#X text 643 318 N;
#X msg 661 213 1 \, 10 100000 10000;
#X obj 661 282 int;
#X obj 690 102 delay 100 1 msec;
#X obj 692 69 s clean;
#X obj 690 142 s clean;
#X obj 958 402 s clean;
#X obj 925 365 select 0 1;
#X obj 875 406 float;
#X msg 894 231 0 \, 1.04 10000;
#X obj 921 337 > 1;
#X text 936 303 t;
#X obj 322 116 metro 1e+006;
#X msg 322 151 1 \, 10 1e+006 100000;
#X obj 692 37 s sonar;
#X obj 267 535 s notay;
#X obj 794 615 s notax;
#X obj 267 498 abs;
#X obj 333 461 * 501;
#X obj 661 562 * 501;
#X obj 794 581 abs;
#X obj 267 461 * 5;
#X obj 794 550 * 29;
#X text 475 62 start-stop;
#X text 188 50 Frecuencia;
#X text 187 117 Drawcurve;
#X connect 1 0 4 0;
#X connect 2 0 3 0;
#X connect 3 0 61 0;
#X connect 3 0 64 0;
#X connect 4 0 11 0;
#X connect 5 0 4 1;
#X connect 6 0 8 0;
#X connect 7 0 60 0;
#X connect 7 0 63 0;
#X connect 8 0 12 0;
#X connect 9 0 8 1;
#X connect 10 0 7 0;
#X connect 11 0 2 0;
#X connect 12 0 10 0;
#X connect 13 0 9 0;
#X connect 14 0 5 0;
#X connect 15 0 20 0;
#X connect 16 0 19 0;
#X connect 24 0 25 0;
#X connect 25 0 52 0;
#X connect 25 0 50 1;
#X connect 26 0 6 1;
#X connect 27 0 37 0;
#X connect 27 0 1 1;
#X connect 29 0 44 0;
#X connect 30 0 26 0;
#X connect 31 0 45 0;
#X connect 31 0 46 0;
#X connect 31 0 13 0;
#X connect 31 0 14 0;
#X connect 31 0 32 0;
#X connect 31 0 56 0;
#X connect 32 0 54 0;
#X connect 35 0 36 0;
#X connect 36 0 51 0;
#X connect 37 0 38 0;
#X connect 38 0 39 0;
#X connect 39 0 43 0;
#X connect 40 0 43 0;
#X connect 40 1 35 0;
#X connect 43 0 29 0;
#X connect 44 0 27 0;
#X connect 45 0 40 0;
#X connect 45 0 47 0;
#X connect 49 0 50 0;
#X connect 49 1 48 0;
#X connect 50 0 1 0;
#X connect 50 0 6 0;
#X connect 51 0 24 0;
#X connect 52 0 49 0;
#X connect 54 0 55 0;
#X connect 55 0 30 0;
#X connect 59 0 57 0;
#X connect 60 0 15 0;
#X connect 61 0 16 0;
#X connect 62 0 58 0;
#X connect 63 0 59 0;
#X connect 64 0 62 0;
